<svg width="143" height="50" viewBox="0 0 143 50" fill="none" xmlns="http://www.w3.org/2000/svg">
<rect width="142.03" height="49.66" rx="10" fill="url(#paint0_linear_1_19)"/>
<g clip-path="url(#clip0_1_19)">
<path d="M46.4276 30.2033L44.0943 27.8033C44.9831 26.7366 45.5387 25.5366 45.7609 24.2033C45.9831 22.8699 45.872 21.5588 45.4276 20.2699C44.9831 18.981 44.2498 17.8699 43.2276 16.9366C42.2054 16.0033 41.0276 15.3922 39.6943 15.1033C38.3609 14.8144 37.0387 14.8477 35.7276 15.2033C34.4165 15.5588 33.272 16.2255 32.2943 17.2033C31.3165 18.181 30.6498 19.3255 30.2943 20.6366C29.9387 21.9477 29.9054 23.2699 30.1943 24.6033C30.4831 25.9366 31.0943 27.1144 32.0276 28.1366C32.9609 29.1588 34.072 29.8922 35.3609 30.3366C36.6498 30.781 37.9609 30.8922 39.2943 30.6699C40.6276 30.4477 41.8276 29.8922 42.8943 29.0033L45.2943 31.3366C45.4276 31.5144 45.6165 31.6033 45.8609 31.6033C46.1054 31.6033 46.3054 31.5255 46.4609 31.3699C46.6165 31.2144 46.6943 31.0144 46.6943 30.7699C46.6943 30.5255 46.6054 30.3366 46.4276 30.2033ZM31.6943 22.8699C31.6943 21.7144 31.972 20.6588 32.5276 19.7033C33.0831 18.7477 33.8387 17.9922 34.7943 17.4366C35.7498 16.881 36.7943 16.6033 37.9276 16.6033C39.0609 16.6033 40.1054 16.881 41.0609 17.4366C42.0165 17.9922 42.7831 18.7477 43.3609 19.7033C43.9387 20.6588 44.2276 21.7033 44.2276 22.8366C44.2276 23.9699 43.9387 25.0144 43.3609 25.9699C42.7831 26.9255 42.0165 27.681 41.0609 28.2366C40.1054 28.7922 39.0609 29.0699 37.9276 29.0699C36.7943 29.0699 35.7498 28.7922 34.7943 28.2366C33.8387 27.681 33.0831 26.9255 32.5276 25.9699C31.972 25.0144 31.6943 23.981 31.6943 22.8699Z" fill="white"/>
</g>
<path d="M63.2454 22.5066C63.2454 22.072 63.3284 21.6643 63.4944 21.2834C63.6604 20.9026 63.885 20.5706 64.1682 20.2874C64.4563 19.9993 64.7908 19.7722 65.1716 19.6062C65.5525 19.4402 65.9602 19.3572 66.3948 19.3572H71.2141V21.4592H66.3948C66.2483 21.4592 66.1116 21.4861 65.9846 21.5398C65.8577 21.5935 65.7454 21.6692 65.6477 21.7668C65.5549 21.8596 65.4817 21.9695 65.428 22.0964C65.3743 22.2234 65.3474 22.3601 65.3474 22.5066C65.3474 22.6531 65.3743 22.7922 65.428 22.9241C65.4817 23.051 65.5549 23.1633 65.6477 23.261C65.7454 23.3538 65.8577 23.427 65.9846 23.4807C66.1116 23.5344 66.2483 23.5613 66.3948 23.5613H68.4968C68.9314 23.5613 69.3391 23.6443 69.72 23.8103C70.1057 23.9714 70.4402 24.196 70.7234 24.4841C71.0115 24.7673 71.2361 25.1018 71.3972 25.4875C71.5632 25.8684 71.6462 26.2761 71.6462 26.7107C71.6462 27.1453 71.5632 27.553 71.3972 27.9338C71.2361 28.3147 71.0115 28.6492 70.7234 28.9373C70.4402 29.2205 70.1057 29.4451 69.72 29.6111C69.3391 29.7771 68.9314 29.8601 68.4968 29.8601H63.8313V27.7581H68.4968C68.6433 27.7581 68.78 27.7312 68.907 27.6775C69.0339 27.6238 69.1438 27.5505 69.2366 27.4578C69.3342 27.3601 69.4099 27.2478 69.4636 27.1208C69.5173 26.9939 69.5442 26.8572 69.5442 26.7107C69.5442 26.5642 69.5173 26.4275 69.4636 26.3005C69.4099 26.1736 69.3342 26.0637 69.2366 25.9709C69.1438 25.8733 69.0339 25.7976 68.907 25.7439C68.78 25.6902 68.6433 25.6633 68.4968 25.6633H66.3948C65.9602 25.6633 65.5525 25.5803 65.1716 25.4143C64.7908 25.2483 64.4563 25.0237 64.1682 24.7405C63.885 24.4524 63.6604 24.1179 63.4944 23.7371C63.3284 23.3513 63.2454 22.9412 63.2454 22.5066ZM75.9382 27.9412C76.0164 27.9656 76.0945 27.9827 76.1726 27.9924C76.2507 27.9973 76.3289 27.9998 76.407 27.9998C76.6023 27.9998 76.7903 27.9729 76.971 27.9192C77.1516 27.8655 77.3201 27.7898 77.4763 27.6921C77.6375 27.5896 77.7791 27.4675 77.9011 27.3259C78.0281 27.1794 78.1306 27.0183 78.2087 26.8425L79.6736 28.3147C79.488 28.5784 79.2732 28.8152 79.0291 29.0251C78.7898 29.2351 78.5286 29.4133 78.2454 29.5598C77.9671 29.7063 77.6716 29.8162 77.3591 29.8894C77.0515 29.9675 76.7341 30.0066 76.407 30.0066C75.8552 30.0066 75.3352 29.9041 74.8469 29.699C74.3635 29.4939 73.9387 29.2083 73.5725 28.842C73.2112 28.4758 72.9255 28.0413 72.7156 27.5383C72.5056 27.0305 72.4006 26.4739 72.4006 25.8684C72.4006 25.2483 72.5056 24.6819 72.7156 24.1692C72.9255 23.6565 73.2112 23.2195 73.5725 22.8582C73.9387 22.4968 74.3635 22.2161 74.8469 22.0159C75.3352 21.8157 75.8552 21.7156 76.407 21.7156C76.7341 21.7156 77.054 21.7546 77.3665 21.8328C77.679 21.9109 77.9744 22.0232 78.2527 22.1697C78.5359 22.3162 78.7996 22.4968 79.0437 22.7117C79.2879 22.9216 79.5027 23.1584 79.6882 23.4221L75.9382 27.9412ZM76.9636 23.8176C76.8709 23.7834 76.7781 23.7615 76.6853 23.7517C76.5974 23.7419 76.5046 23.7371 76.407 23.7371C76.1336 23.7371 75.8748 23.7883 75.6306 23.8909C75.3914 23.9885 75.1814 24.1301 75.0007 24.3157C74.825 24.5012 74.6858 24.7258 74.5833 24.9895C74.4807 25.2483 74.4295 25.5413 74.4295 25.8684C74.4295 25.9417 74.4319 26.0247 74.4368 26.1174C74.4465 26.2102 74.4587 26.3054 74.4734 26.4031C74.4929 26.4958 74.5149 26.5862 74.5393 26.6741C74.5637 26.762 74.5955 26.8401 74.6345 26.9084L76.9636 23.8176ZM88.2356 29.8601H87.7522L86.9758 28.7834C86.7854 28.9543 86.5828 29.1155 86.3679 29.2668C86.158 29.4133 85.9358 29.5427 85.7014 29.655C85.4671 29.7625 85.2254 29.8479 84.9763 29.9114C84.7322 29.9749 84.4832 30.0066 84.2293 30.0066C83.6775 30.0066 83.1575 29.9138 82.6692 29.7283C82.1858 29.5427 81.761 29.2742 81.3948 28.9226C81.0335 28.5662 80.7478 28.1316 80.5379 27.6189C80.3279 27.1062 80.2229 26.5227 80.2229 25.8684C80.2229 25.2581 80.3279 24.699 80.5379 24.1912C80.7478 23.6785 81.0335 23.239 81.3948 22.8728C81.761 22.5066 82.1858 22.2234 82.6692 22.0232C83.1575 21.8181 83.6775 21.7156 84.2293 21.7156C84.4832 21.7156 84.7346 21.7473 84.9837 21.8108C85.2327 21.8743 85.4744 21.9622 85.7087 22.0745C85.9431 22.1868 86.1653 22.3186 86.3753 22.47C86.5901 22.6213 86.7903 22.7849 86.9758 22.9607L87.7522 22.0305H88.2356V29.8601ZM86.2214 25.8684C86.2214 25.595 86.1677 25.3313 86.0603 25.0774C85.9578 24.8186 85.8162 24.5916 85.6355 24.3962C85.4548 24.196 85.2424 24.0374 84.9983 23.9202C84.759 23.7981 84.5027 23.7371 84.2293 23.7371C83.9558 23.7371 83.697 23.7834 83.4529 23.8762C83.2136 23.969 83.0037 24.1057 82.823 24.2864C82.6472 24.467 82.5081 24.6917 82.4055 24.9602C82.303 25.2239 82.2517 25.5266 82.2517 25.8684C82.2517 26.2102 82.303 26.5154 82.4055 26.7839C82.5081 27.0476 82.6472 27.2698 82.823 27.4504C83.0037 27.6311 83.2136 27.7678 83.4529 27.8606C83.697 27.9534 83.9558 27.9998 84.2293 27.9998C84.5027 27.9998 84.759 27.9412 84.9983 27.824C85.2424 27.7019 85.4548 27.5432 85.6355 27.3479C85.8162 27.1477 85.9578 26.9207 86.0603 26.6667C86.1677 26.408 86.2214 26.1418 86.2214 25.8684ZM91.7659 29.8601H89.7664V22.0159H90.2498L90.9089 22.946C91.2312 22.6531 91.5974 22.4285 92.0076 22.2722C92.4177 22.1111 92.8425 22.0305 93.282 22.0305H95.0471V24.0227H93.282C93.072 24.0227 92.8743 24.0618 92.6887 24.1399C92.5032 24.218 92.3421 24.3254 92.2053 24.4622C92.0686 24.5989 91.9612 24.76 91.8831 24.9456C91.8049 25.1311 91.7659 25.3289 91.7659 25.5388V29.8601ZM102.686 23.5759L101.221 25.0481C101.148 24.843 101.048 24.6599 100.921 24.4988C100.794 24.3328 100.65 24.1936 100.489 24.0813C100.333 23.969 100.162 23.8835 99.9763 23.825C99.7908 23.7664 99.6003 23.7371 99.405 23.7371C99.1316 23.7371 98.8728 23.7932 98.6287 23.9055C98.3894 24.0178 98.1795 24.1765 97.9988 24.3816C97.823 24.5818 97.6838 24.821 97.5813 25.0994C97.4788 25.3777 97.4275 25.6853 97.4275 26.0222C97.4275 26.2957 97.4788 26.552 97.5813 26.7913C97.6838 27.0305 97.823 27.2405 97.9988 27.4211C98.1795 27.6018 98.3894 27.7434 98.6287 27.8459C98.8728 27.9485 99.1316 27.9998 99.405 27.9998C99.6003 27.9998 99.7883 27.9729 99.969 27.9192C100.15 27.8655 100.318 27.7898 100.474 27.6921C100.636 27.5896 100.777 27.4675 100.899 27.3259C101.026 27.1794 101.129 27.0183 101.207 26.8425L102.672 28.3147C102.486 28.5784 102.271 28.8152 102.027 29.0251C101.788 29.2351 101.527 29.4133 101.243 29.5598C100.965 29.7063 100.67 29.8162 100.357 29.8894C100.05 29.9675 99.7322 30.0066 99.405 30.0066C98.8533 30.0066 98.3333 29.9041 97.845 29.699C97.3616 29.489 96.9368 29.2034 96.5706 28.842C96.2092 28.4807 95.9236 28.0583 95.7136 27.575C95.5037 27.0916 95.3987 26.574 95.3987 26.0222C95.3987 25.4216 95.5037 24.8601 95.7136 24.3376C95.9236 23.8152 96.2092 23.3611 96.5706 22.9753C96.9368 22.5847 97.3616 22.2771 97.845 22.0525C98.3333 21.8279 98.8533 21.7156 99.405 21.7156C99.7322 21.7156 100.052 21.7571 100.365 21.8401C100.682 21.9231 100.982 22.0452 101.265 22.2063C101.553 22.3625 101.817 22.5554 102.056 22.7849C102.301 23.0144 102.511 23.2781 102.686 23.5759ZM105.667 29.8601H103.668V18.8958H105.667V22.3601C105.907 22.1794 106.153 22.0525 106.407 21.9792C106.661 21.9011 106.92 21.8621 107.183 21.8621C107.667 21.8621 108.121 21.9548 108.546 22.1404C108.97 22.321 109.339 22.5725 109.652 22.8948C109.969 23.2122 110.218 23.5857 110.399 24.0154C110.584 24.4402 110.677 24.8943 110.677 25.3777V29.8601H108.663V25.3777H108.677C108.677 25.1726 108.638 24.9797 108.56 24.7991C108.482 24.6135 108.375 24.4524 108.238 24.3157C108.101 24.179 107.943 24.0715 107.762 23.9934C107.581 23.9153 107.388 23.8762 107.183 23.8762C106.973 23.8762 106.776 23.9153 106.59 23.9934C106.405 24.0715 106.243 24.179 106.107 24.3157C105.97 24.4524 105.863 24.6135 105.784 24.7991C105.706 24.9797 105.667 25.1726 105.667 25.3777V29.8601Z" fill="white"/>
<defs>
<linearGradient id="paint0_linear_1_19" x1="1.78569e-06" y1="4.99999" x2="142" y2="50" gradientUnits="userSpaceOnUse">
<stop stop-color="#3023B2"/>
<stop offset="1" stop-color="#7F56D9"/>
</linearGradient>
<clipPath id="clip0_1_19">
<rect width="20" height="20" fill="white" transform="matrix(1 0 0 -1 30 33.27)"/>
</clipPath>
</defs>
</svg>
